<?xml version="1.0" encoding="UTF-8" standalone="no"?>
<svg
   xmlns:dc="http://purl.org/dc/elements/1.1/"
   xmlns:cc="http://creativecommons.org/ns#"
   xmlns:rdf="http://www.w3.org/1999/02/22-rdf-syntax-ns#"
   xmlns:svg="http://www.w3.org/2000/svg"
   xmlns="http://www.w3.org/2000/svg"
   xmlns:sodipodi="http://sodipodi.sourceforge.net/DTD/sodipodi-0.dtd"
   xmlns:inkscape="http://www.inkscape.org/namespaces/inkscape"
   fill-opacity="1"
   color-rendering="auto"
   color-interpolation="auto"
   text-rendering="auto"
   stroke="#000000"
   stroke-linecap="square"
   width="136.72337"
   stroke-miterlimit="10"
   shape-rendering="auto"
   stroke-opacity="1"
   fill="#000000"
   stroke-dasharray="none"
   font-weight="normal"
   stroke-width="1"
   height="115.93469"
   font-family="Dialog"
   font-style="normal"
   stroke-linejoin="miter"
   font-size="12px"
   stroke-dashoffset="0"
   image-rendering="auto"
   version="1.1"
   id="svg78"
   sodipodi:docname="top_logo.svg"
   inkscape:version="1.0 (4035a4fb49, 2020-05-01)">
  <metadata
     id="metadata82">
    <rdf:RDF>
      <cc:Work
         rdf:about="">
        <dc:format>image/svg+xml</dc:format>
        <dc:type
           rdf:resource="http://purl.org/dc/dcmitype/StillImage" />
        <dc:title></dc:title>
      </cc:Work>
    </rdf:RDF>
  </metadata>
  <sodipodi:namedview
     inkscape:document-rotation="0"
     pagecolor="#ffffff"
     bordercolor="#666666"
     borderopacity="1"
     objecttolerance="10"
     gridtolerance="10"
     guidetolerance="10"
     inkscape:pageopacity="0"
     inkscape:pageshadow="2"
     inkscape:window-width="1920"
     inkscape:window-height="1017"
     id="namedview80"
     showgrid="false"
     showguides="true"
     inkscape:guide-bbox="true"
     inkscape:zoom="5.6568543"
     inkscape:cx="39.42496"
     inkscape:cy="59.598536"
     inkscape:window-x="-8"
     inkscape:window-y="-8"
     inkscape:window-maximized="1"
     inkscape:current-layer="svg78"
     lock-margins="true"
     fit-margin-top="10"
     fit-margin-left="10"
     fit-margin-right="10"
     fit-margin-bottom="10" />
  <!--Generated by ySVG 2.5-->
  <defs
     id="genericDefs">
    <defs
       id="defs1">
      <clipPath
         id="clipPath1"
         clipPathUnits="userSpaceOnUse">
        <path
           id="path3"
           d="M 0,0 H 157 V 131 H 0 Z" />
      </clipPath>
      <clipPath
         id="clipPath2"
         clipPathUnits="userSpaceOnUse">
        <path
           id="path6"
           d="M 452,330 H 609 V 461 H 452 Z" />
      </clipPath>
    </defs>
  </defs>
  <g
     transform="translate(-8.5504292,-10.130615)"
     id="g943"
     inkscape:label="graph">
    <path
       id="ellipse14"
       clip-path="url(#clipPath2)"
       style="fill:#497288;stroke:none;stroke-width:0;stroke-miterlimit:10;stroke-dasharray:none;shape-rendering:geometricPrecision;text-rendering:geometricPrecision"
       inkscape:label="body"
       transform="matrix(0.95,0,0,0.95,-428.74818,-309.54673)"
       d="m 549.27802,409.06531 c 0,5.52285 -7.3873,10 -16.5,10 -9.1127,0 -16.5,-4.47715 -16.5,-10 0,-2.76142 1.84683,-5.26142 4.83274,-7.07107 1.49295,-0.90482 3.27068,-1.63705 5.24472,-2.14308 0.4935,-0.12651 0.8677,-0.18273 1.38436,-0.28012 1.43978,1.04396 3.43736,1.91599 5.03818,1.92331 1.88947,-0.0168 3.53712,-0.94504 5.03818,-1.92331 0.51666,0.0974 0.89086,0.15361 1.38436,0.28012 1.97404,0.50603 3.75177,1.23826 5.24472,2.14308 2.98591,1.80965 4.83274,4.30965 4.83274,7.07107"
       sodipodi:nodetypes="csssscccssc" />
    <ellipse
       style="fill:#497288;shape-rendering:geometricPrecision;text-rendering:geometricPrecision"
       id="ellipse22"
       stroke="none"
       cy="391.56531"
       cx="532.77802"
       clip-path="url(#clipPath2)"
       ry="9.2551565"
       rx="8.5"
       transform="matrix(0.9025,0,0,0.9025,-403.44122,-291.82238)"
       inkscape:label="head" />
    <circle
       id="circle30"
       stroke="none"
       cy="354.13062"
       cx="532.77802"
       clip-path="url(#clipPath2)"
       r="9"
       style="display:inline;fill:#497288;stroke:#969696;stroke-width:2;stroke-linecap:round;stroke-miterlimit:10;stroke-dasharray:none;stroke-opacity:1;shape-rendering:geometricPrecision;text-rendering:geometricPrecision"
       transform="translate(-455.38708,-324)" />
    <circle
       id="circle38"
       stroke="none"
       cy="436.06531"
       cx="572.71252"
       clip-path="url(#clipPath2)"
       r="9"
       style="fill:#497288;stroke:#969696;stroke-width:2;stroke-linecap:round;stroke-miterlimit:10;stroke-dasharray:none;stroke-opacity:1;shape-rendering:geometricPrecision;text-rendering:geometricPrecision"
       transform="translate(-455.38708,-330)" />
    <circle
       id="circle46"
       stroke="none"
       cy="436.06531"
       cx="493.21249"
       clip-path="url(#clipPath2)"
       r="9"
       style="fill:#497288;stroke:#969696;stroke-width:2;stroke-linecap:round;stroke-miterlimit:1.45;stroke-dasharray:none;stroke-opacity:1;shape-rendering:geometricPrecision;text-rendering:geometricPrecision"
       transform="translate(-455.38708,-330)" />
    <circle
       id="circle54"
       stroke="none"
       cy="436.06531"
       cx="532.96252"
       clip-path="url(#clipPath2)"
       r="9"
       style="fill:#497288;stroke:#969696;stroke-width:2;stroke-linecap:round;stroke-miterlimit:1.45;stroke-dasharray:none;stroke-opacity:1;shape-rendering:geometricPrecision;text-rendering:geometricPrecision"
       transform="translate(-455.38708,-330)" />
    <path
       style="stroke:#969696;stroke-width:2;stroke-linecap:butt;stroke-miterlimit:1.45;shape-rendering:geometricPrecision;text-rendering:geometricPrecision"
       id="path66"
       clip-path="url(#clipPath2)"
       d="m 532.95976,371.26843 v -8.23158"
       fill="none"
       sodipodi:nodetypes="cc"
       transform="translate(-455.38708,-324)" />
    <path
       style="stroke:#969696;stroke-width:2;stroke-linecap:butt;stroke-miterlimit:1.45;shape-rendering:geometricPrecision;text-rendering:geometricPrecision"
       id="path68"
       clip-path="url(#clipPath2)"
       d="m 547.4489,412.6581 18.6617,17.2904"
       fill="none"
       transform="translate(-455.38708,-330)" />
    <path
       style="stroke:#969696;stroke-width:2;stroke-linecap:butt;stroke-miterlimit:1.45;shape-rendering:geometricPrecision;text-rendering:geometricPrecision"
       id="path70"
       clip-path="url(#clipPath2)"
       d="M 518.1702,412.7259 499.786,429.918"
       fill="none"
       transform="translate(-455.38708,-330)" />
    <path
       style="stroke:#969696;stroke-width:2;stroke-linecap:butt;stroke-miterlimit:1.45;shape-rendering:geometricPrecision;text-rendering:geometricPrecision"
       id="path72"
       clip-path="url(#clipPath2)"
       d="M 532.95976,427.04978 V 419.0651"
       fill="none"
       sodipodi:nodetypes="cc"
       transform="translate(-455.38708,-330)" />
  </g>
  <g
     transform="translate(-460.13009,-340.13062)"
     aria-label="TOP"
     id="text62"
     clip-path="url(#clipPath2)"
     style="font-weight:bold;font-size:60px;font-family:Moonbeam;fill:#969696;stroke:none;stroke-linecap:butt;stroke-miterlimit:1.45;shape-rendering:geometricPrecision;text-rendering:geometricPrecision"
     inkscape:label="text">
    <path
       d="m 485.55009,419.42801 v -40.02 h -15.42 v -2.34 h 33.24 v 2.34 h -15.48 v 40.02 z"
       style="stroke:none"
       id="path907" />
    <path
       d="m 528.79509,375.80801 q 9.24,0 15.9,6.36 6.66,6.36 6.66,15.48 0,9.3 -6.3,15.96 -6.3,6.66 -15.48,6.66 -9.3,0 -15.96,-6.3 -6.66,-6.3 -6.66,-15.54 0,-9.24 6.3,-15.9 6.36,-6.72 15.54,-6.72 z m 0,2.64 q -7.98,0 -13.62,5.94 -5.58,5.88 -5.58,14.04 0,8.04 5.88,13.62 5.88,5.58 14.1,5.58 8.04,0 13.56,-5.82 5.58,-5.88 5.58,-14.16 0,-8.04 -5.88,-13.62 -5.88,-5.58 -14.04,-5.58 z"
       style="stroke:none"
       id="path909" />
    <path
       d="m 560.15347,379.22801 v 24 h 12.24 q 4.8,0 8.28,-3.6 3.54,-3.66 3.54,-8.4 0,-4.74 -3.72,-8.34 -3.66,-3.66 -8.7,-3.66 z m 0,26.64 v 13.68 h -2.46 v -42.96 h 14.1 q 6.06,0 10.56,4.38 4.5,4.38 4.5,10.26 0,5.82 -4.2,10.26 -4.2,4.38 -10.26,4.38 z"
       style="stroke:none"
       id="path911" />
  </g>
</svg>
