<?xml version="1.0" standalone="no"?>
<!DOCTYPE svg PUBLIC "-//W3C//DTD SVG 20010904//EN"
 "http://www.w3.org/TR/2001/REC-SVG-20010904/DTD/svg10.dtd">
<svg version="1.0" xmlns="http://www.w3.org/2000/svg"
 width="700.000000pt" height="700.000000pt" viewBox="0 0 700.000000 700.000000"
 preserveAspectRatio="xMidYMid meet">
<metadata>
Created by potrace 1.14, written by Peter Selinger 2001-2017
</metadata>
<g transform="translate(0.000000,700.000000) scale(0.100000,-0.100000)"
fill="#000000" stroke="none">
<path d="M3350 6694 c-199 -41 -378 -209 -435 -409 -87 -300 90 -625 388 -716
34 -10 72 -19 85 -19 12 0 23 -3 23 -7 5 -24 4 -813 -1 -814 -3 0 -25 -3 -50
-5 -64 -6 -195 -33 -249 -50 -68 -22 -77 -26 -184 -78 -175 -86 -341 -228
-454 -388 l-54 -77 -52 28 c-66 36 -178 96 -292 156 -206 109 -350 188 -358
194 -4 4 1 32 10 62 18 57 24 214 10 282 -26 136 -122 280 -237 356 -155 103
-300 129 -488 87 -38 -8 -128 -52 -178 -87 -116 -79 -209 -220 -238 -359 -19
-90 -12 -201 19 -296 111 -351 514 -507 842 -327 27 15 82 61 124 103 54 54
80 74 90 68 8 -5 66 -36 129 -69 545 -288 555 -293 553 -315 -1 -10 -15 -57
-31 -104 -46 -129 -65 -231 -68 -375 -4 -189 26 -356 87 -494 16 -35 29 -69
29 -75 0 -6 -21 -23 -47 -37 -121 -65 -189 -102 -198 -109 -5 -4 -39 -23 -75
-43 -36 -19 -123 -67 -195 -107 -71 -40 -147 -82 -167 -93 l-37 -20 -73 72
c-252 252 -653 226 -876 -56 -36 -46 -84 -145 -102 -212 -25 -92 -18 -224 18
-336 37 -116 168 -266 283 -322 190 -93 407 -83 577 27 51 32 117 92 159 144
31 37 85 162 99 228 18 85 14 207 -10 283 -21 68 -21 70 17 90 54 28 73 39
387 214 l303 169 28 -42 c110 -165 277 -311 466 -405 151 -76 247 -104 432
-126 23 -3 46 -7 50 -9 8 -5 9 -801 1 -809 -3 -3 -18 -8 -35 -10 -187 -34
-352 -162 -432 -337 -37 -82 -44 -112 -48 -219 -6 -165 51 -309 169 -427 88
-87 171 -134 291 -163 44 -10 222 -5 270 8 191 53 356 215 410 405 20 68 26
194 14 263 -11 62 -54 166 -92 221 -86 128 -225 219 -382 250 l-40 8 -2 407
-1 407 21 1 c102 3 261 40 371 84 161 65 297 155 416 275 62 62 164 188 173
213 2 7 73 -27 173 -82 93 -52 187 -104 209 -116 38 -21 91 -50 220 -122 33
-18 79 -43 103 -55 47 -25 48 -26 27 -94 -23 -71 -27 -206 -10 -287 72 -334
423 -536 750 -430 352 114 509 535 318 851 -109 180 -291 283 -502 284 -158 1
-309 -66 -423 -187 -27 -27 -48 -53 -48 -58 0 -6 -81 34 -165 83 -16 10 -59
33 -95 53 -198 107 -476 260 -484 267 -5 5 5 41 22 82 119 290 121 628 6 912
-13 33 -24 63 -24 66 0 4 30 23 68 42 97 49 322 168 357 188 17 10 91 49 166
88 l136 72 38 -48 c76 -93 211 -175 333 -201 296 -62 603 131 682 429 28 103
15 267 -27 365 -78 182 -248 318 -438 352 -60 10 -178 7 -237 -7 -98 -24 -225
-98 -294 -172 -44 -47 -105 -154 -125 -217 -27 -89 -33 -207 -13 -295 9 -39
17 -79 17 -89 2 -18 -1 -20 -293 -174 -63 -33 -155 -82 -205 -108 -223 -118
-228 -120 -232 -107 -9 24 -119 166 -169 217 -99 102 -211 183 -339 247 -71
36 -196 82 -250 92 -16 4 -41 9 -55 11 -32 7 -109 18 -171 24 -9 1 -9 795 0
807 3 5 32 15 64 21 131 27 271 121 349 235 128 185 138 430 26 627 -42 74
-149 178 -224 218 -117 63 -272 84 -404 57z m340 -2105 c122 -26 113 -24 125
-30 6 -4 28 -12 50 -19 158 -50 372 -209 495 -368 93 -121 185 -334 205 -477
4 -22 8 -51 11 -65 6 -33 6 -229 -1 -260 -3 -14 -8 -45 -11 -70 -10 -89 -83
-276 -147 -380 l-22 -35 -7 69 c-17 171 -154 323 -385 424 -65 29 -209 72
-239 72 -6 0 -37 -15 -67 -33 -58 -36 -138 -64 -197 -70 -66 -7 -176 27 -262
80 -21 13 -46 23 -56 23 -40 0 -222 -65 -302 -107 -144 -77 -221 -150 -276
-260 -31 -61 -37 -83 -38 -143 0 -38 -2 -70 -3 -70 -3 0 -55 92 -86 156 -41
81 -84 212 -92 281 -4 26 -9 57 -12 67 -7 24 -5 230 2 282 17 116 94 341 131
385 8 8 14 19 14 23 0 21 95 143 174 221 163 163 341 259 565 305 121 25 308
25 431 -1z"/>
<path d="M3435 4432 c-133 -15 -259 -98 -332 -220 -48 -81 -65 -142 -69 -244
-3 -83 0 -110 21 -176 50 -159 154 -265 305 -313 246 -77 492 88 556 373 3 13
5 59 5 103 1 278 -231 505 -486 477z"/>
</g>
</svg>
